<?xml version="1.0" encoding="utf-8"?>
<!-- Generator: Adobe Illustrator 16.0.0, SVG Export Plug-In . SVG Version: 6.00 Build 0)  -->
<!DOCTYPE svg PUBLIC "-//W3C//DTD SVG 1.1//EN" "http://www.w3.org/Graphics/SVG/1.1/DTD/svg11.dtd">
<svg version="1.1" id="Layer_1" xmlns="http://www.w3.org/2000/svg" xmlns:xlink="http://www.w3.org/1999/xlink" x="0px" y="0px"
	 width="184.25px" height="46.25px" viewBox="0 0 184.25 46.25" enable-background="new 0 0 184.25 46.25" xml:space="preserve">
<g>
	<path fill="#939E9E" d="M9.181,19.67V3.384h2.762c2.573,0,4.361,0.188,5.805,1.696c1.099,1.129,1.914,3.42,1.914,6.432
		s-0.815,5.335-1.914,6.464c-1.444,1.506-3.232,1.694-5.805,1.694H9.181z M24.588,11.512C24.588,4.607,20.759,1,13.417,1H1.461
		v2.384h1.224c1.82,0,2.071,0.188,2.071,1.946v12.395c0,1.757-0.251,1.945-2.071,1.945H1.461v2.385h11.955
		C20.759,22.055,24.588,18.416,24.588,11.512"/>
	<path fill="#939E9E" d="M34.011,8.781c1.82,0,2.699,1.256,2.888,3.954h-6.277C30.999,10.1,32.191,8.781,34.011,8.781
		 M34.042,22.619c3.829,0,6.464-2.228,6.904-5.866H38.31c-0.502,2.415-1.631,3.356-4.048,3.356c-2.321,0-3.672-1.757-3.797-5.146
		H41.04c0-5.429-2.479-8.285-6.998-8.285c-4.769,0-7.844,3.231-7.844,7.97C26.198,19.449,29.21,22.619,34.042,22.619"/>
	<path fill="#939E9E" d="M50.807,20.172h-0.94c-1.601,0-1.821-0.439-1.821-1.882V1.22h-6.589v2.103h0.941
		c1.6,0,1.819,0.438,1.819,1.882V18.29c0,1.442-0.219,1.882-1.819,1.882h-0.941v2.104h9.35V20.172z"/>
	<path fill="#939E9E" d="M61.54,16.093c0,2.511-1.35,3.892-3.326,3.892c-1.255,0-1.946-0.66-1.946-1.789
		c0-1.977,1.978-2.353,5.272-3.891V16.093z M68.914,17.191v-0.659H67c0,2.448-0.063,3.452-0.973,3.452
		c-0.47,0-0.722-0.315-0.722-1.067v-6.59c0-2.165-0.125-3.577-1.631-4.581c-1.036-0.69-2.668-1.067-4.801-1.067
		c-3.829,0-6.088,1.664-6.088,3.923c0,1.444,1.035,2.448,2.511,2.448c1.317,0,2.196-0.816,2.196-2.009
		c0-1.067-0.722-1.726-1.977-1.726h-0.094c0.752-0.659,1.694-0.911,2.98-0.911c2.071,0,3.233,0.847,3.233,2.385
		c0,0.942-0.283,1.507-1.035,2.01c-0.722,0.469-2.071,0.627-3.829,1.16c-3.17,0.973-4.738,2.165-4.738,4.613
		c0,2.321,1.788,4.047,4.487,4.047c2.197,0,3.828-0.722,5.084-2.353c0.47,1.601,1.569,2.353,3.42,2.353
		C67.847,22.619,68.914,20.926,68.914,17.191"/>
	<path fill="#939E9E" d="M82.124,11.574c0.596-1.506,1.318-2.229,2.322-2.229h0.69V7.243h-7.561v2.103h0.847
		c1.004,0,1.381,0.189,1.381,0.816c0,0.251-0.095,0.565-0.22,0.91l-2.573,6.559l-2.919-6.842c-0.126-0.282-0.156-0.502-0.156-0.688
		c0-0.503,0.345-0.755,1.067-0.755h1.097V7.243h-9.1v2.103h0.942c1.161,0,1.788,0.627,2.353,1.914l4.833,10.795
		c-0.937,2.426-1.895,4.102-3.095,4.756c0.054-0.2,0.092-0.407,0.092-0.627c0-1.318-1.035-2.322-2.353-2.322
		c-1.317,0-2.321,1.036-2.321,2.322c0,0.771,0.362,1.461,0.934,1.892c0.549,0.457,1.395,0.792,2.554,0.792
		c3.452,0,5.413-2.858,7.703-8.57L82.124,11.574z"/>
	<path fill="#939E9E" d="M92.556,8.781c1.821,0,2.698,1.256,2.888,3.954h-6.277C89.544,10.1,90.736,8.781,92.556,8.781
		 M92.587,22.619c3.829,0,6.463-2.228,6.904-5.866h-2.636c-0.502,2.415-1.631,3.356-4.049,3.356c-2.321,0-3.67-1.757-3.796-5.146
		h10.576c0-5.429-2.48-8.285-6.999-8.285c-4.769,0-7.844,3.231-7.844,7.97C84.743,19.449,87.755,22.619,92.587,22.619"/>
	<path fill="#939E9E" d="M108.701,9.408c2.133,0,3.577,1.852,3.577,5.273c0,3.42-1.444,5.303-3.577,5.303
		c-2.418,0-3.577-1.758-3.577-5.303C105.124,11.134,106.283,9.408,108.701,9.408 M107.224,22.494c2.418,0,4.017-0.942,5.054-3.012
		v2.573h6.495v-2.104h-0.91c-1.602,0-1.789-0.439-1.789-1.882V1h-6.903v2.102h1.318c1.599,0,1.789,0.438,1.789,1.883v4.738
		c-1.037-2.07-2.636-3.043-5.054-3.043c-3.984,0-6.369,2.855-6.369,7.906C100.855,19.64,103.24,22.494,107.224,22.494"/>
	<path fill="#939E9E" d="M24.409,33.902h-11.14v2.385h1.318c2.009,0,2.385,0.031,2.385,1.727v1.191c0,2.385-1.82,3.797-4.675,3.797
		c-3.954,0-6.339-2.95-6.339-8.378c0-5.366,2.479-8.566,6.119-8.566c3.075,0,5.46,2.196,6.307,6.15H20.8v-8.222h-2.228l-0.878,1.82
		c-1.758-1.601-3.703-2.322-6.088-2.322c-2.886,0-5.366,1.004-7.342,2.95C2.161,28.505,1,31.36,1,34.624
		c0,3.265,1.098,6.058,3.169,8.158c1.946,1.978,4.456,3.013,7.343,3.013c2.448,0,4.487-0.722,6.401-2.259l1.13,1.757h2.291v-7.028
		c0-1.664,0.22-1.978,1.726-1.978h1.349V33.902z"/>
	<path fill="#939E9E" d="M34.378,29.948c-1.631,0-2.95,0.879-3.922,2.636v-2.228h-6.621v2.103h1.036
		c1.599,0,1.788,0.439,1.788,1.882v6.843c0,1.441-0.189,1.882-1.788,1.882h-1.036v2.102h9.978v-2.102h-1.568
		c-1.601,0-1.789-0.44-1.789-1.882v-3.986c0-3.452,1.694-5.585,3.64-5.585c0.345,0,0.784,0.094,1.286,0.313
		c-1.256,0.346-1.914,1.098-1.914,2.134c0,1.13,0.848,1.945,2.165,1.945c1.538,0,2.542-1.13,2.542-2.668
		C38.175,31.36,36.637,29.948,34.378,29.948"/>
	<path fill="#939E9E" d="M47.664,39.206c0,2.51-1.35,3.891-3.326,3.891c-1.255,0-1.946-0.659-1.946-1.789
		c0-1.977,1.978-2.353,5.272-3.891V39.206z M52.15,43.097c-0.47,0-0.722-0.314-0.722-1.067V35.44c0-2.165-0.125-3.577-1.631-4.581
		c-1.036-0.691-2.668-1.068-4.801-1.068c-3.829,0-6.088,1.664-6.088,3.924c0,1.442,1.035,2.448,2.511,2.448
		c1.317,0,2.196-0.817,2.196-2.01c0-1.067-0.722-1.725-1.977-1.725h-0.094c0.752-0.66,1.694-0.911,2.98-0.911
		c2.071,0,3.233,0.846,3.233,2.385c0,0.941-0.283,1.506-1.035,2.008c-0.722,0.471-2.071,0.628-3.829,1.161
		c-3.17,0.973-4.738,2.166-4.738,4.613c0,2.322,1.788,4.047,4.488,4.047c2.196,0,3.827-0.721,5.083-2.353
		c0.47,1.601,1.569,2.353,3.42,2.353c2.825,0,3.891-1.692,3.891-5.428v-0.659h-1.914C53.124,42.093,53.061,43.097,52.15,43.097"/>
	<path fill="#939E9E" d="M62.613,38.171v0.814c0,2.668-0.188,3.829-1.412,3.829c-0.941,0-1.13-0.534-1.13-1.851v-8.442h4.143v-2.166
		h-4.079v-5.835h-2.009c-0.251,3.671-1.381,5.491-4.298,5.962v2.039h2.446v8.002c0,3.515,1.131,5.178,3.891,5.178
		c3.233,0,4.519-1.915,4.519-6.182c0-0.409,0-0.879-0.031-1.349H62.613z"/>
	<path fill="#939E9E" d="M71.991,41.183V30.355h-6.779v2.104h1.162c1.601,0,1.788,0.438,1.788,1.883v6.841
		c0,1.443-0.187,1.882-1.788,1.882h-1.162v2.104h9.54v-2.104H73.81C72.21,43.064,71.991,42.626,71.991,41.183"/>
	<path fill="#939E9E" d="M86.173,24.744c0.997-0.171,2.09-0.081,2.978,0.121c-0.255,0.374-0.403,0.827-0.403,1.318
		c0,1.285,1.004,2.353,2.321,2.353c1.249,0,2.234-0.934,2.334-2.153c0.004-0.034,0.007-0.069,0.01-0.105
		c0.002-0.032,0.009-0.062,0.009-0.094c0-0.014-0.003-0.026-0.003-0.039c0.001-0.033,0.003-0.064,0.003-0.099
		c0-2.055-2.917-3.205-7.364-3.205c-4.538,0-7.448,2.764-7.448,7.306v0.242h-2.825v2.195h2.825v8.6c0,1.506-0.22,1.882-1.915,1.882
		h-0.91v2.102h9.822v-2.102h-1.412c-1.601,0-1.788-0.44-1.788-1.882v-8.6h3.2v-2.195h-3.2V29.79
		C82.407,29.023,82.569,25.362,86.173,24.744"/>
	<path fill="#939E9E" d="M93.586,41.183V30.355h-6.779v2.104h1.162c1.6,0,1.788,0.438,1.788,1.883v6.841
		c0,1.443-0.188,1.882-1.788,1.882h-1.162v2.104h9.54v-2.104h-0.941C93.804,43.064,93.586,42.626,93.586,41.183"/>
	<path fill="#939E9E" d="M105.289,34.876c0,1.349,0.908,2.164,2.258,2.164c1.507,0,2.51-1.034,2.51-2.667
		c0-2.541-2.415-4.582-6.18-4.582c-4.833,0-8.189,3.232-8.189,7.971c0,4.864,2.916,7.939,7.592,7.939
		c4.174,0,6.402-2.228,6.623-6.684h-2.418c-0.313,2.604-1.474,3.859-3.607,3.859c-2.605,0-3.924-1.694-3.924-5.146
		c0-3.766,1.57-5.867,4.078-5.867c1.194,0,2.137,0.346,3.078,1.129C106.01,33.117,105.289,33.902,105.289,34.876"/>
	<path fill="#939E9E" d="M120.232,39.206c0,2.51-1.35,3.891-3.326,3.891c-1.256,0-1.946-0.659-1.946-1.789
		c0-1.977,1.978-2.353,5.272-3.891V39.206z M124.718,43.097c-0.47,0-0.722-0.314-0.722-1.067V35.44c0-2.165-0.125-3.577-1.631-4.581
		c-1.036-0.691-2.668-1.068-4.802-1.068c-3.828,0-6.088,1.664-6.088,3.924c0,1.442,1.037,2.448,2.512,2.448
		c1.316,0,2.195-0.817,2.195-2.01c0-1.067-0.722-1.725-1.976-1.725h-0.095c0.753-0.66,1.693-0.911,2.98-0.911
		c2.072,0,3.232,0.846,3.232,2.385c0,0.941-0.283,1.506-1.035,2.008c-0.722,0.471-2.07,0.628-3.829,1.161
		c-3.169,0.973-4.737,2.166-4.737,4.613c0,2.322,1.789,4.047,4.487,4.047c2.196,0,3.827-0.721,5.083-2.353
		c0.471,1.601,1.569,2.353,3.42,2.353c2.825,0,3.891-1.692,3.891-5.428v-0.659h-1.914C125.691,42.093,125.628,43.097,124.718,43.097
		"/>
	<path fill="#939E9E" d="M135.181,38.171v0.814c0,2.668-0.188,3.829-1.412,3.829c-0.941,0-1.129-0.534-1.129-1.851v-8.442h4.143
		v-2.166h-4.08v-5.835h-2.008c-0.252,3.671-1.381,5.491-4.299,5.962v2.039h2.445v8.002c0,3.515,1.132,5.178,3.893,5.178
		c3.232,0,4.518-1.915,4.518-6.182c0-0.409,0-0.879-0.03-1.349H135.181z"/>
	<path fill="#939E9E" d="M145.242,41.183V30.355h-6.777v2.104h1.16c1.602,0,1.789,0.438,1.789,1.883v6.841
		c0,1.443-0.188,1.882-1.789,1.882h-1.16v2.104h9.539v-2.104h-0.942C145.46,43.064,145.242,42.626,145.242,41.183"/>
	<path fill="#939E9E" d="M143.044,28.536c1.318,0,2.354-1.035,2.354-2.353c0-1.318-1.035-2.323-2.354-2.323
		c-1.316,0-2.32,1.037-2.32,2.323S141.728,28.536,143.044,28.536"/>
	<path fill="#939E9E" d="M155.609,43.474c-2.729,0-4.078-1.884-4.078-5.712s1.349-5.743,4.078-5.743c2.73,0,4.111,1.915,4.111,5.743
		S158.339,43.474,155.609,43.474 M155.609,29.791c-5.082,0-8.346,3.202-8.346,7.971c0,4.771,3.264,7.94,8.346,7.94
		c5.086,0,8.379-3.17,8.379-7.94C163.988,32.993,160.695,29.791,155.609,29.791"/>
	<path fill="#939E9E" d="M182.345,43.064c-1.6,0-1.789-0.438-1.789-1.882v-5.837c0-3.766-1.255-5.46-4.801-5.46
		c-1.788,0-3.514,1.036-5.145,3.075v-2.605h-6.623v2.104h1.037c1.6,0,1.789,0.438,1.789,1.883v6.841
		c0,1.443-0.189,1.882-1.789,1.882h-1.037v2.104h9.039v-2.104h-0.629c-1.6,0-1.787-0.438-1.787-1.882v-3.829
		c0-3.326,1.599-5.052,3.826-5.052c1.758,0,2.323,1.004,2.323,3.044v5.837c0,1.443-0.188,1.882-1.789,1.882h-0.627v2.104h8.911
		v-2.104H182.345z"/>
</g>
</svg>
